<svg width="280" height="281" viewBox="0 0 280 281" fill="none" xmlns="http://www.w3.org/2000/svg">
<rect x="141" y="141" width="112" height="112" fill="#3399FF"/>
<path fill-rule="evenodd" clip-rule="evenodd" d="M84 141C84 109.52 109.52 84 141 84V141H84Z" fill="#3399FF"/>
<path d="M83.8606 141.227L141.202 141.124L141 254L83.8606 141.227Z" fill="#3399FF"/>
<path d="M141.354 0.646447C141.158 0.451184 140.842 0.451184 140.646 0.646447L137.464 3.82843C137.269 4.02369 137.269 4.34027 137.464 4.53553C137.66 4.7308 137.976 4.7308 138.172 4.53553L141 1.70711L143.828 4.53553C144.024 4.7308 144.34 4.7308 144.536 4.53553C144.731 4.34027 144.731 4.02369 144.536 3.82843L141.354 0.646447ZM141.5 281L141.5 1L140.5 1L140.5 281L141.5 281Z" fill="black"/>
<path d="M279.354 141.354C279.549 141.158 279.549 140.842 279.354 140.646L276.172 137.464C275.976 137.269 275.66 137.269 275.464 137.464C275.269 137.66 275.269 137.976 275.464 138.172L278.293 141L275.464 143.828C275.269 144.024 275.269 144.34 275.464 144.536C275.66 144.731 275.976 144.731 276.172 144.536L279.354 141.354ZM-4.37114e-08 141.5L279 141.5L279 140.5L4.37114e-08 140.5L-4.37114e-08 141.5Z" fill="black"/>
</svg>
